<svg width="132" height="173" viewBox="0 0 132 173" fill="none" xmlns="http://www.w3.org/2000/svg">
<g filter="url(#filter0_d_221_3)">
<path d="M35.4961 55.9002L64.0588 35.1514L92.327 55.9002V109.192L64.0588 129.941L35.4961 108.1V55.9002Z" fill="white" stroke="white" stroke-width="0.944606" stroke-linejoin="round"/>
<path d="M64.0586 129.504L92.0324 108.973L115 115.526C93.759 131.239 70.2423 151.782 64.0586 151.782V129.504Z" fill="#CFDDFF" stroke="#CFDDFF" stroke-width="0.944606" stroke-linejoin="round"/>
<path d="M115 49.1294L92.6211 55.2448V108.755L115 114.87V49.1294Z" fill="#A1A6FF" stroke="#A1A6FF" stroke-width="0.944606" stroke-linejoin="round"/>
<path d="M14 49.2388L35.2012 55.3339V108.666L14 114.761V49.2388Z" fill="#A1A6FF" stroke="#A1A6FF" stroke-width="0.944606" stroke-linejoin="round"/>
<path d="M35.7901 55.4633L14 48.2558C14 48.2558 58.758 14.1841 59.9359 13.5289C61.1137 12.8736 61.7746 12.0311 64.0583 12V34.4961L35.7901 55.4633Z" fill="#CFDDFF" stroke="#CFDDFF" stroke-width="0.944606"/>
<path d="M35.7901 108.537L14 115.744C14 115.744 58.758 149.816 59.9359 150.471C61.1137 151.126 61.7746 151.969 64.0583 152V129.504L35.7901 108.537Z" fill="#B5C0FF" stroke="#B5C0FF" stroke-width="0.944606"/>
<path d="M92.3263 55.0265L64.3525 34.7145L64.647 12C66.2721 12.0801 66.9932 12.1337 67.8861 13.0921L114.705 48.4743L92.3263 55.0265Z" fill="#B5C0FF"/>
<path d="M64.3525 34.7145L63.8803 34.7084L63.8771 34.953L64.075 35.0967L64.3525 34.7145ZM92.3263 55.0265L92.0488 55.4087L92.2364 55.545L92.459 55.4798L92.3263 55.0265ZM114.705 48.4743L114.838 48.9275C115.009 48.8774 115.138 48.7349 115.17 48.5594C115.202 48.3838 115.132 48.2051 114.99 48.0975L114.705 48.4743ZM67.8861 13.0921L67.5405 13.414L67.5685 13.4441L67.6013 13.4689L67.8861 13.0921ZM64.647 12L64.6702 11.5283L64.1811 11.5042L64.1747 11.9939L64.647 12ZM64.075 35.0967L92.0488 55.4087L92.6038 54.6444L64.63 34.3323L64.075 35.0967ZM92.459 55.4798L114.838 48.9275L114.573 48.021L92.1936 54.5733L92.459 55.4798ZM114.99 48.0975L68.1708 12.7152L67.6013 13.4689L114.421 48.8511L114.99 48.0975ZM68.2316 12.7701C67.7371 12.2393 67.2626 11.9337 66.6723 11.763C66.1136 11.6013 65.4668 11.5675 64.6702 11.5283L64.6238 12.4717C65.4522 12.5126 65.9785 12.5456 66.4098 12.6704C66.8096 12.786 67.1421 12.9864 67.5405 13.414L68.2316 12.7701ZM64.1747 11.9939L63.8803 34.7084L64.8248 34.7206L65.1193 12.0061L64.1747 11.9939Z" fill="#B5C0FF"/>
<path d="M72.598 55.9003L64.0586 35.3699L92.0324 55.9003V109.192L64.0586 128.412L72.598 107.008V55.9003Z" fill="#E8F3FF"/>
</g>
<defs>
<filter id="filter0_d_221_3" x="5.00098" y="7.50415" width="126.472" height="164.975" filterUnits="userSpaceOnUse" color-interpolation-filters="sRGB">
<feFlood flood-opacity="0" result="BackgroundImageFix"/>
<feColorMatrix in="SourceAlpha" type="matrix" values="0 0 0 0 0 0 0 0 0 0 0 0 0 0 0 0 0 0 127 0" result="hardAlpha"/>
<feOffset dx="4" dy="8"/>
<feGaussianBlur stdDeviation="6"/>
<feComposite in2="hardAlpha" operator="out"/>
<feColorMatrix type="matrix" values="0 0 0 0 1 0 0 0 0 0.845833 0 0 0 0 0.961458 0 0 0 0.25 0"/>
<feBlend mode="normal" in2="BackgroundImageFix" result="effect1_dropShadow_221_3"/>
<feBlend mode="normal" in="SourceGraphic" in2="effect1_dropShadow_221_3" result="shape"/>
</filter>
</defs>
</svg>
